PathFileType	4	(X/Y/Z)	/home/abdul/Desktop/myosuite/custom_workspace/IK/output/S11_12_2.trc
DataRate	CameraRate	NumFrames	NumMarkers	Units	OrigDataRate	OrigDataStartFrame	OrigNumFrames
200.0	200.0	61	3	mm	200.0	751	1500
Frame#	Time	V_Shoulder			V_Elbow			V_Wrist		
		X1	Y1	Z1	X2	Y2	Z2	X3	Y3	Z3

751	3.75	-94.22694855981483	663.6285970487357	317.1677047015308	-309.08842210134463	431.11112578125324	206.04544126308258	-111.7276653246358	399.8363596132083	369.32552532826554
752	3.755	-94.22060962292663	663.6653738199675	317.1648981170056	-309.0790613096677	431.12069856312456	206.03804221595533	-111.69669584375848	399.86410877282833	369.32530587240774
753	3.76	-94.21524516057146	663.6985021525467	317.1596919033139	-309.0676662872895	431.12870502443343	206.01664344015347	-111.66580337257668	399.8830890788571	369.3145335834209
754	3.765	-94.21096709777186	663.7276579149034	317.1519396527749	-309.0541911756137	431.1351002031408	205.98034088005244	-111.63517811014191	399.89257645878445	369.292422210915
755	3.77	-94.20788903786179	663.7525099069164	317.1414939848197	-309.0385958504761	431.1398425552169	205.9282273577227	-111.60502003033662	399.8918298494111	369.25817111570126
756	3.775	-94.2061260371304	663.7727203469249	317.128206849206	-309.020845933031	431.14289390948795	205.85939459536488	-111.5755384579966	399.88009222692335	369.2109664690795
757	3.78	-94.20579437281805	663.7879453872605	317.1119298379625	-309.0009127705248	431.1442193997079	205.77293528058243	-111.54695159325985	399.85659170315887	369.14998250424844
758	3.785	-94.20701130487528	663.7978356574977	317.0925145055251	-308.978773387538	431.1437873742509	205.6679451704057	-111.51948598531266	399.8205426867313	369.07438281850835
759	3.79	-94.20989483191914	663.8020368345029	317.0698126964871	-308.9544104084207	431.1415692839315	205.5435252297427	-111.49337595697642	399.77114710742376	368.98332172478024
760	3.795	-94.21456344184456	663.8001902382716	317.0436768803457	-308.927811951786	431.1375395485614	205.39878379969886	-111.46886298185106	399.70759570200585	368.8759456508051
761	3.8	-94.22113585757181	663.7919334524216	317.0139604925877	-308.8989714980647	431.13167540295757	205.23283879097517	-111.44619501599672	399.6290693593727	368.7513945842313
762	3.805	-94.22973077843373	663.7769009681208	316.980518281416	-308.8678877312517	431.1239567232178	205.04481989733105	-111.42562578639695	399.5347405226456	368.60880356163113
763	3.81	-94.24046661772813	663.7547248501168	316.9432066593818	-308.834564356098	431.1143658341728	204.8338708238802	-111.40741403869978	399.42377464562037	368.44730419931903
764	3.815	-94.2534612369821	663.7250354234419	316.90188405914955	-308.7990098921201	431.10288729901845	204.5991515247781	-111.39182274697703	399.29533170070005	368.26602626367367
765	3.82	-94.26883167749622	663.6874619792728	316.85641129258215	-308.76123744590416	431.08950769221855	204.3398404446635	-111.37911828847584	399.1485677352031	368.06409927849245
766	3.825	-94.28669388975432	663.6416334983284	316.80665191230247	-308.72126446328366	431.07421535685046	204.05513675802825	-111.36956958655827	398.9826364726963	367.84065416672917
767	3.83	-94.30716246130527	663.587179390105	316.7524725748494	-308.67911246306073	431.05700014764204	203.7442626005179	-111.36344722523162	398.7966909557764	367.59482492379357
768	3.835	-94.33035034373823	663.5237302461637	316.6937434045157	-308.6348067540216	431.03785316102073	203.40646528600934	-111.36102253886574	398.5898852264986	367.3257503194136
769	3.84	-94.35636857939056	663.4509186056065	316.63033835692653	-308.5883761370704	431.0167664535585	203.04101950316888	-111.36256668086901	398.3613760404459	367.0325756248875
770	3.845	-94.38532602844101	663.3683797308031	316.5621355813842	-308.5398525943648	430.9937327502546	202.6472294850758	-111.36834967525385	398.1103246102299	366.71445436238207
771	3.85	-94.41732909705446	663.2757523913696	316.48901778098536	-308.4892709673916	430.96874514415026	202.22443114539058	-111.37863945516213	397.8358983740363	366.3705500727654
772	3.855	-94.45248146725585	663.1726796543281	316.41087256948714	-308.4366686259581	430.9417967888123	201.77199417446963	-111.39370089254042	397.53727278465647	366.0000380982974
773	3.86	-94.49088382922064	663.058809678335	316.3275928238836	-308.3820851301054	430.91288058526135	201.28932408876796	-111.41379482325443	397.21363311429775	365.6021073763454
774	3.865	-94.53263361667717	662.9337965098063	316.2390770316322	-308.3255618869698	430.881988864949	200.77586422683848	-111.43917707200836	396.8641762703277	365.17596224013914
775	3.87	-94.5778247461224	662.7973008787352	316.14522963145913	-308.26714180462255	430.8491130704117	200.2310976852263	-111.47009748149013	396.4881126169946	364.7208242224391
776	3.875	-94.6265473605563	662.6489909919619	316.04596134665985	-308.20686894491837	430.81424343524304	199.65454918757382	-111.50679895019402	396.0846677980698	364.23593385785205
777	3.88	-94.67888757844285	662.4885433216308	315.9411895098041	-308.1447881773641	430.77736866503574	199.0457868802967	-111.54951648338076	395.6530845552777	363.72055247941046
778	3.885	-94.73492724860438	662.3156433865502	315.8308383777515	-308.08094483599564	430.73847562094204	198.40442404826115	-111.59847626161815	395.1926245373288	363.17396400491145
779	3.89	-94.7947437117546	662.1299865241674	315.71483943588464	-308.01538438121315	430.6975490074975	197.73012074399395	-111.65389473130516	394.7025700943301	362.59547670841494
780	3.895	-94.85840956937027	661.9312786508636	315.5931316904714	-307.94815206847625	430.65457106633653	197.02258532408501	-111.71597772151746	394.18222605233933	361.98442497220697
781	3.9	-94.92599246059457	661.7192370082853	315.4656619480756	-307.8792926257033	430.6095212774084	196.28157588659963	-111.78491959142315	393.63092146283475	361.34017101446346
782	3.905	-94.99755484785635	661.4935908934449	315.3323850809508	-307.8088499411522	430.5623760692738	195.50690160350456	-111.86090241240446	393.0480113219025	360.66210658778306
783	3.91	-95.07315381187595	661.2540823703467	315.1932642773663	-307.73686676347916	430.5131085400286	194.69842394232964	-111.94409518888465	392.43287825399625	359.9496546437183
784	3.915	-95.15284085671634	661.0004669609307	315.04827127583934	-307.6633844155888	430.4616881903598	193.85605777152912	-112.03465312169931	391.78493415519586	359.20227095840016
785	3.92	-95.23666172551869	660.7325143131642	314.8973865822713	-307.5884425237908	430.4080806701926	192.97977234428419	-112.1327169176698	391.1036217909849	358.41944571433885
786	3.925	-95.32465622754493	660.450008844169	314.74059966901973	-307.5120787636764	430.3522475403348	192.06959215578667	-112.23841214883186	390.3884163436823	357.60070503349027
787	3.93	-95.41685807712543	660.1527503563256	314.57790915497077	-307.4343286240174	430.29414605046827	191.12559766937505	-112.35184866454898	389.6388269047982	356.7456124566945
788	3.935	-95.51329474508778	659.840554624365	314.40932296571697	-307.3552251898708	430.2337289347737	190.147925907249	-112.47312005949628	388.8543979077343	355.8537703646358
789	3.94	-95.61398732321454	659.5132539515379	314.23485847299145	-307.27479894595155	430.1709442264081	189.13677090186863	-112.60230320023867	388.0347104964235	354.9248213355304
790	3.945	-95.71895040224933	659.1706976930283	314.05454261255744	-307.1930776012041	430.105735091983	188.09238400455018	-112.73945781284819	387.1793838256893	353.9584494348236
791	3.95	-95.82819196393928	658.8127527448775	313.868411979804	-307.1100859353713	430.0380396871159	187.01507404819733	-112.88462613371185	386.2880762893136	352.9543814322726
792	3.955	-95.9417132875678	658.439303996776	313.6765129023586	-307.0258456682209	429.96779103404907	185.9052073615555	-113.03783262537294	385.3604866720181	351.91238794190735
793	3.96	-96.05950887139625	658.0502547471932	313.4789014890848	-306.9403753519507	429.89491692224817	184.7632076328439	-113.19908375892953	384.3963552217987	350.83228448049044
794	3.965	-96.18156636939476	657.6455270794227	313.2756436549036	-306.8536902871481	429.81933983280715	183.58955562110648	-113.36836786418365	383.39546463930014	349.7139324402516
795	3.97	-96.3078665436024	657.2250621972399	313.06681512093877	-306.7658024625373	429.7409768874008	182.38478871412264	-113.54565504839644	382.35764098117363	348.5572399718394
796	3.975	-96.43838323241594	656.788820718997	312.85250138956684	-306.67672051860177	429.65973982243383	181.1495003322334	-113.73089718416011	381.2827544746271	347.36216277362297
797	3.98	-96.57308333506153	656.3367829291033	312.63279769402067	-306.58644973502476	429.5755349889487	179.88433917796516	-113.92402796654908	380.1707202406555	346.1287047836803
798	3.985	-96.7119268124596	655.8689489859793	312.40780892227843	-306.4949920417451	429.48826337875823	178.59000833186593	-114.12496303936034	379.02149892372006	344.8569187710367
799	3.99	-96.85486670464648	655.3853390857064	312.1776495150479	-306.4023460532869	429.39782067717954	177.26726419551244	-114.33360018990379	377.8350972259336	343.54690682295524
800	3.995	-97.00184916486744	654.8859935807419	311.9424433377426	-306.3085071258787	429.3040973426466	175.91691528318984	-114.54981961145239	376.6115683441038	342.19882072533994
801	4.0	-97.15281351040831	654.3709730532069	311.7023235264274	-306.2134674367435	429.20697871338973	174.53982086429548	-114.773484232118	375.35101230828036	340.8128622335873
802	4.005	-97.30769229018206	653.8403583424086	311.45743230780386	-306.1172160848082	429.10634514126775	173.13688945906236	-115.00444010857959	374.0535762207529	339.3892832315107
803	4.01	-97.46641136903581	653.2942505264047	311.2079207933878	-306.01973921195486	429.0020721527517	171.7090771907437	-115.2425168827605	372.71945439474047	337.9283857762674
804	4.015	-97.62889002869292	652.7327708575682	310.9539487481269	-305.9210201438143	428.8940306369542	170.2573859979362	-115.4875282992308	371.3488883923151	336.4305220275362
805	4.02	-97.79504108519359	652.1560606522626	310.6956843337918	-305.82103954898787	428.78208706051123	168.78286171125072	-115.73927278080441	369.9421669613956	334.89609405952785
806	4.025	-97.96477102264431	651.5642811348872	310.433303827567	-305.71977561547556	428.6661037090206	167.28659199905695	-115.9975340595065	368.4996258719402	333.32555355475324
807	4.03	-98.13798014303615	650.9576132367037	310.1669913163577	-305.61720424298846	428.5459389546529	165.76970418753558	-116.2620818598108	367.02164765175326	331.71940137883075
808	4.035	-98.31456273183956	650.3362573500017	309.89693836741645	-305.5132992497322	428.4214475494513	164.2333629607616	-116.53267263078736	365.5086612226087	330.07818703598286
809	4.04	-98.49440723903298	649.7004330383103	309.6233436759857	-305.40803259216557	428.2924809437444	162.67876794701505	-116.80905032356259	363.96114143766454	328.40250800524336
810	4.045	-98.67739647517158	649.0503787034994	309.34641269073444	-305.30137459616367	428.1588876290046	161.10715119796862	-117.09094721027549	362.3796085214171	326.6930089577866
811	4.05	-98.863407822054	648.3863512107638	309.066357217859	-305.19329419795463	428.0205135043884	159.51977456783115	-117.37808474051941	360.7646274137034	324.9503808561758
